# xmcd CD database file
#
# Track frame offsets:
#	150
#	19797
#	48212
#	71687
#	96922
#	112695
#	129057
#	155372
#	194027
#	217722
#	243560
#
# Disc length: 4174 seconds
#
# Revision: 0
# Processed by: cddbd v1.5.2PL0 Copyright (c) Steve Scherf et al.
# Submitted via: CDex 1.51
#
DISCID=89104c0b
DTITLE=Berlanga Alfano Azim Sachdev - Peaceful Planet
DYEAR=1900
DGENRE=New Age
TTITLE0=with all my love
TTITLE1=prelude and lullaby for an old tree
TTITLE2=A corner in the wood
TTITLE3=Tiawanaku
TTITLE4=Saqsaywaman
TTITLE5=Uturunku
TTITLE6=Koricancha
TTITLE7=Shumba YaNswasha
TTITLE8=Bangidza
TTITLE9=Chipindura
TTITLE10=Subtle Feelings
EXTD=
EXTT0=
EXTT1=
EXTT2=
EXTT3=
EXTT4=
EXTT5=
EXTT6=
EXTT7=
EXTT8=
EXTT9=
EXTT10=
PLAYORDER=
